<?xml version="1.0" encoding="UTF-8" standalone="no"?>
<!-- Created with Inkscape (http://www.inkscape.org/) -->

<svg
   xmlns:dc="http://purl.org/dc/elements/1.1/"
   xmlns:cc="http://creativecommons.org/ns#"
   xmlns:rdf="http://www.w3.org/1999/02/22-rdf-syntax-ns#"
   xmlns:svg="http://www.w3.org/2000/svg"
   xmlns="http://www.w3.org/2000/svg"
   xmlns:sodipodi="http://sodipodi.sourceforge.net/DTD/sodipodi-0.dtd"
   xmlns:inkscape="http://www.inkscape.org/namespaces/inkscape"
   width="75.286377mm"
   height="25.443996mm"
   viewBox="0 0 75.286377 25.443996"
   version="1.1"
   id="svg1022"
   inkscape:version="0.92.2 2405546, 2018-03-11"
   sodipodi:docname="iconText.svg">
  <defs
     id="defs1016" />
  <sodipodi:namedview
     id="base"
     pagecolor="#ffffff"
     bordercolor="#666666"
     borderopacity="1.0"
     inkscape:pageopacity="0.0"
     inkscape:pageshadow="2"
     inkscape:zoom="0.7"
     inkscape:cx="-15.435914"
     inkscape:cy="5.1238355"
     inkscape:document-units="mm"
     inkscape:current-layer="g1988"
     showgrid="false"
     inkscape:window-width="681"
     inkscape:window-height="766"
     inkscape:window-x="684"
     inkscape:window-y="1"
     inkscape:window-maximized="0" />
  <metadata
     id="metadata1019">
    <rdf:RDF>
      <cc:Work
         rdf:about="">
        <dc:format>image/svg+xml</dc:format>
        <dc:type
           rdf:resource="http://purl.org/dc/dcmitype/StillImage" />
        <dc:title></dc:title>
      </cc:Work>
    </rdf:RDF>
  </metadata>
  <g
     inkscape:label="Layer 1"
     inkscape:groupmode="layer"
     id="layer1"
     transform="translate(-94.459025,-124.74501)">
    <g
       id="g1988"
       style="fill:#ffffff;fill-opacity:1"
       transform="matrix(0.23373901,0,0,0.23373901,25.698309,-88.945912)">
      <g
         id="g1151"
         style="fill:#ffffff;fill-opacity:1">
        <path
           inkscape:connector-curvature="0"
           id="path5545-7"
           style="font-style:normal;font-variant:normal;font-weight:normal;font-stretch:normal;font-size:medium;line-height:1.25;font-family:'URW Gothic';-inkscape-font-specification:'URW Gothic';letter-spacing:0px;word-spacing:0px;fill:#ffffff;fill-opacity:1;stroke:none;stroke-width:3.55739999"
           d="m 349.81506,914.22876 c -30.16674,0 -55.63774,24.61721 -55.63774,53.78788 0,30.59365 24.75951,55.06856 55.78004,55.06856 30.30905,0 55.35314,-24.6172 55.35314,-54.35708 0,-30.02445 -25.04409,-54.49936 -55.49544,-54.49936 z m 0,9.67613 c 24.61721,0 44.82324,20.34833 44.82324,44.96553 0,24.33261 -20.34833,44.53868 -44.68094,44.53868 -25.04409,0 -45.10783,-20.20607 -45.10783,-45.10787 0,-24.04801 20.63292,-44.39634 44.96553,-44.39634 z" />
        <path
           id="path5547-9"
           transform="matrix(1.1319605,0,0,1.1319605,294.17732,914.22875)"
           d="M 113.28125,1.6347656 V 72.886719 94.388672 h 9.36719 V 72.886719 h -0.0645 V 10.056641 h 13.07227 c 9.80519,0 16.34279,1.006091 21.37109,3.394531 6.28538,3.01699 9.80469,9.302209 9.80469,17.724609 0,10.55944 -4.77576,17.222888 -14.07812,19.611328 -4.39976,1.13138 -10.43418,1.632813 -20.74219,1.632813 l 31.19336,41.96875 h 11.56445 L 148.85547,59.837891 c 17.85047,-1.88562 27.4043,-11.691057 27.4043,-28.410157 0,-11.565099 -4.90218,-20.364988 -13.95313,-25.2675778 C 156.5241,3.0174663 148.6045,1.6347656 136.28516,1.6347656 Z"
           style="font-style:normal;font-variant:normal;font-weight:normal;font-stretch:normal;font-size:medium;line-height:1.25;font-family:'URW Gothic';-inkscape-font-specification:'URW Gothic';letter-spacing:0px;word-spacing:0px;fill:#ffffff;fill-opacity:1;stroke:none;stroke-width:3.14268899"
           inkscape:connector-curvature="0" />
        <path
           inkscape:connector-curvature="0"
           id="path5549-2"
           style="font-style:normal;font-variant:normal;font-weight:normal;font-stretch:normal;font-size:medium;line-height:1.25;font-family:'URW Gothic';-inkscape-font-specification:'URW Gothic';letter-spacing:0px;word-spacing:0px;fill:#ffffff;fill-opacity:1;stroke:none;stroke-width:3.55739999"
           d="m 544.84064,972.71242 v 9.53382 h 58.76824 c -1.56526,6.83021 -5.12266,12.66435 -11.09909,18.64076 -8.11087,8.1109 -19.20996,12.5221 -31.44741,12.5221 -25.75558,0 -46.10391,-19.63687 -46.10391,-44.68098 0,-25.32868 19.92144,-44.82323 45.96161,-44.82323 16.22174,0 29.88216,7.39939 37.13925,20.20603 h 11.81057 c -6.9725,-17.92929 -26.89394,-29.88216 -49.8036,-29.88216 -31.30512,0 -55.78003,23.76343 -55.78003,54.21477 0,30.87823 24.9018,54.64167 57.203,54.64167 16.64863,0 30.87822,-6.1187 40.98124,-17.787 8.53776,-9.81842 13.09123,-20.77521 13.80271,-32.58578 z" />
      </g>
    </g>
  </g>
</svg>
