<?xml version="1.0" encoding="UTF-8" standalone="no"?>
<!-- Created with Inkscape (http://www.inkscape.org/) -->

<svg
   xmlns:dc="http://purl.org/dc/elements/1.1/"
   xmlns:cc="http://creativecommons.org/ns#"
   xmlns:rdf="http://www.w3.org/1999/02/22-rdf-syntax-ns#"
   xmlns:svg="http://www.w3.org/2000/svg"
   xmlns="http://www.w3.org/2000/svg"
   xmlns:sodipodi="http://sodipodi.sourceforge.net/DTD/sodipodi-0.dtd"
   xmlns:inkscape="http://www.inkscape.org/namespaces/inkscape"
   width="210mm"
   height="297mm"
   viewBox="0 0 210 297"
   version="1.1"
   id="svg1022"
   inkscape:version="0.92.2 2405546, 2018-03-11"
   sodipodi:docname="icon.svg">
  <defs
     id="defs1016" />
  <sodipodi:namedview
     id="base"
     pagecolor="#ffffff"
     bordercolor="#666666"
     borderopacity="1.0"
     inkscape:pageopacity="0.0"
     inkscape:pageshadow="2"
     inkscape:zoom="0.35"
     inkscape:cx="400"
     inkscape:cy="560"
     inkscape:document-units="mm"
     inkscape:current-layer="layer1"
     showgrid="false"
     inkscape:window-width="681"
     inkscape:window-height="766"
     inkscape:window-x="684"
     inkscape:window-y="1"
     inkscape:window-maximized="0" />
  <metadata
     id="metadata1019">
    <rdf:RDF>
      <cc:Work
         rdf:about="">
        <dc:format>image/svg+xml</dc:format>
        <dc:type
           rdf:resource="http://purl.org/dc/dcmitype/StillImage" />
        <dc:title></dc:title>
      </cc:Work>
    </rdf:RDF>
  </metadata>
  <g
     inkscape:label="Layer 1"
     inkscape:groupmode="layer"
     id="layer1">
    <circle
       r="41.580128"
       cy="105.87049"
       cx="164.8232"
       id="path991"
       style="font-style:normal;font-variant:normal;font-weight:normal;font-stretch:normal;font-size:medium;line-height:1.25;font-family:'Droid Sans Georgian';-inkscape-font-specification:'Droid Sans Georgian';letter-spacing:0px;word-spacing:0px;fill:#e74c3c;fill-opacity:1;stroke:none;stroke-width:2.5135417;stroke-linejoin:round;stroke-miterlimit:4;stroke-dasharray:none;stroke-opacity:1;paint-order:markers fill stroke"
       transform="rotate(14.999999)" />
    <g
       id="g867"
       style="fill:#ffffff"
       transform="matrix(0.23373901,0,0,0.23373901,25.698309,-88.945912)">
      <g
         style="fill:#ffffff;fill-opacity:1"
         id="g1988">
        <path
           inkscape:connector-curvature="0"
           id="path5545-7"
           style="font-style:normal;font-variant:normal;font-weight:normal;font-stretch:normal;font-size:medium;line-height:1.25;font-family:'URW Gothic';-inkscape-font-specification:'URW Gothic';letter-spacing:0px;word-spacing:0px;fill:#ffffff;fill-opacity:1;stroke:none;stroke-width:3.55739999"
           d="m 349.81506,914.22876 c -30.16674,0 -55.63774,24.61721 -55.63774,53.78788 0,30.59365 24.75951,55.06856 55.78004,55.06856 30.30905,0 55.35314,-24.6172 55.35314,-54.35708 0,-30.02445 -25.04409,-54.49936 -55.49544,-54.49936 z m 0,9.67613 c 24.61721,0 44.82324,20.34833 44.82324,44.96553 0,24.33261 -20.34833,44.53868 -44.68094,44.53868 -25.04409,0 -45.10783,-20.20607 -45.10783,-45.10787 0,-24.04801 20.63292,-44.39634 44.96553,-44.39634 z" />
        <path
           style="font-style:normal;font-variant:normal;font-weight:normal;font-stretch:normal;font-size:medium;line-height:1.25;font-family:'URW Gothic';-inkscape-font-specification:'URW Gothic';letter-spacing:0px;word-spacing:0px;fill:#ffffff;fill-opacity:1;stroke:none;stroke-width:3.14268899"
           d="M 470.29102 473.11133 L 470.29102 544.36328 L 470.29102 566.00977 L 470.29102 687.29492 L 479.6582 687.29492 L 479.6582 544.36328 L 479.59375 544.36328 L 479.59375 481.5332 L 492.66602 481.5332 C 502.47121 481.5332 509.00881 482.53929 514.03711 484.92773 C 520.32249 487.94472 523.8418 494.22994 523.8418 502.65234 C 523.8418 513.21178 519.06603 519.87523 509.76367 522.26367 C 505.36391 523.39505 499.32949 523.89648 489.02148 523.89648 L 520.32227 566.00977 L 531.88672 566.00977 L 505.86523 531.31445 C 523.7157 529.42883 533.26953 519.6234 533.26953 502.9043 C 533.26953 491.3392 528.36736 482.53931 519.31641 477.63672 C 513.53387 474.49403 505.61426 473.11133 493.29492 473.11133 L 470.29102 473.11133 z "
           transform="matrix(1.1319605,0,0,1.1319605,-109.94446,380.53516)"
           id="path5547-9" />
        <path
           inkscape:connector-curvature="0"
           id="path5549-2"
           style="font-style:normal;font-variant:normal;font-weight:normal;font-stretch:normal;font-size:medium;line-height:1.25;font-family:'URW Gothic';-inkscape-font-specification:'URW Gothic';letter-spacing:0px;word-spacing:0px;fill:#ffffff;fill-opacity:1;stroke:none;stroke-width:3.55739999"
           d="m 544.84064,972.71242 v 9.53382 h 58.76824 c -1.56526,6.83021 -5.12266,12.66435 -11.09909,18.64076 -8.11087,8.1109 -19.20996,12.5221 -31.44741,12.5221 -25.75558,0 -46.10391,-19.63687 -46.10391,-44.68098 0,-25.32868 19.92144,-44.82323 45.96161,-44.82323 16.22174,0 29.88216,7.39939 37.13925,20.20603 h 11.81057 c -6.9725,-17.92929 -26.89394,-29.88216 -49.8036,-29.88216 -31.30512,0 -55.78003,23.76343 -55.78003,54.21477 0,30.87823 24.9018,54.64167 57.203,54.64167 16.64863,0 30.87822,-6.1187 40.98124,-17.787 8.53776,-9.81842 13.09123,-20.77521 13.80271,-32.58578 z" />
      </g>
    </g>
  </g>
</svg>
