<?xml version="1.0" encoding="UTF-8" standalone="no"?>
<!-- Created with Inkscape (http://www.inkscape.org/) -->

<svg
   xmlns:dc="http://purl.org/dc/elements/1.1/"
   xmlns:cc="http://creativecommons.org/ns#"
   xmlns:rdf="http://www.w3.org/1999/02/22-rdf-syntax-ns#"
   xmlns:svg="http://www.w3.org/2000/svg"
   xmlns="http://www.w3.org/2000/svg"
   xmlns:sodipodi="http://sodipodi.sourceforge.net/DTD/sodipodi-0.dtd"
   xmlns:inkscape="http://www.inkscape.org/namespaces/inkscape"
   width="243.54449mm"
   height="183.8445mm"
   viewBox="0 0 243.5445 183.84449"
   version="1.1"
   id="svg1136"
   inkscape:version="0.92.2 2405546, 2018-03-11"
   sodipodi:docname="splash-logo.svg">
  <defs
     id="defs1130" />
  <sodipodi:namedview
     id="base"
     pagecolor="#ffffff"
     bordercolor="#666666"
     borderopacity="1.0"
     inkscape:pageopacity="0.0"
     inkscape:pageshadow="2"
     inkscape:zoom="0.39570225"
     inkscape:cx="299.93573"
     inkscape:cy="643.33439"
     inkscape:document-units="mm"
     inkscape:current-layer="layer1"
     showgrid="false"
     inkscape:window-width="1364"
     inkscape:window-height="766"
     inkscape:window-x="1"
     inkscape:window-y="1"
     inkscape:window-maximized="0"
     inkscape:snap-global="false" />
  <metadata
     id="metadata1133">
    <rdf:RDF>
      <cc:Work
         rdf:about="">
        <dc:format>image/svg+xml</dc:format>
        <dc:type
           rdf:resource="http://purl.org/dc/dcmitype/StillImage" />
        <dc:title />
      </cc:Work>
    </rdf:RDF>
  </metadata>
  <g
     inkscape:label="Layer 1"
     inkscape:groupmode="layer"
     id="layer1"
     transform="translate(20.39594,127.01331)">
    <rect
       y="-126.93079"
       x="-20.313429"
       height="183.67947"
       width="243.37947"
       id="rect5533"
       style="font-style:normal;font-variant:normal;font-weight:normal;font-stretch:normal;font-size:medium;line-height:1.25;font-family:'Droid Sans Georgian';-inkscape-font-specification:'Droid Sans Georgian';letter-spacing:0px;word-spacing:0px;fill:#2f4f4f;fill-opacity:1;stroke:none;stroke-width:0.16502279" />
    <g
       id="g885"
       transform="matrix(0.26458333,0,0,0.26458333,14.844342,-278.27792)">
      <circle
         transform="rotate(15)"
         style="font-style:normal;font-variant:normal;font-weight:normal;font-stretch:normal;font-size:medium;line-height:1.25;font-family:'Droid Sans Georgian';-inkscape-font-specification:'Droid Sans Georgian';letter-spacing:0px;word-spacing:0px;fill:#e74c3c;fill-opacity:1;stroke:none;stroke-width:9.5;stroke-linejoin:round;stroke-miterlimit:4;stroke-dasharray:none;stroke-opacity:1;paint-order:markers fill stroke"
         id="path991"
         cx="688.97791"
         cy="700.48309"
         r="157.15324" />
      <g
         style="fill:#7e9d9d;fill-opacity:1"
         transform="translate(14.389319,798.90528)"
         id="g1996">
        <path
           d="m 465.58546,330.54062 h 10.52988 V 225.38387 h -10.52988 z"
           style="font-style:normal;font-variant:normal;font-weight:normal;font-stretch:normal;font-size:medium;line-height:1.25;font-family:'URW Gothic';-inkscape-font-specification:'URW Gothic';letter-spacing:0px;word-spacing:0px;fill:#ecf0f1;fill-opacity:1;stroke:none;stroke-width:3.55739999"
           id="path5557-7"
           inkscape:connector-curvature="0" />
        <path
           inkscape:connector-curvature="0"
           id="path5551-0"
           style="font-style:normal;font-variant:normal;font-weight:normal;font-stretch:normal;font-size:medium;line-height:1.25;font-family:'URW Gothic';-inkscape-font-specification:'URW Gothic';letter-spacing:0px;word-spacing:0px;fill:#7e9d9d;fill-opacity:1;stroke:none;stroke-width:3.55739999"
           d="m 214.48657,330.54062 h 11.09909 l 19.35227,-44.96554 h 40.83893 l 19.35227,44.96554 H 316.6551 L 271.40498,225.38387 H 259.5944 Z m 30.45136,-44.96554 20.63293,-48.23835 20.206,48.23835 z"
           sodipodi:nodetypes="ccccccccccccc" />
        <path
           inkscape:connector-curvature="0"
           id="path5555-2"
           style="font-style:normal;font-variant:normal;font-weight:normal;font-stretch:normal;font-size:medium;line-height:1.25;font-family:'URW Gothic';-inkscape-font-specification:'URW Gothic';letter-spacing:0px;word-spacing:0px;fill:#7e9d9d;fill-opacity:1;stroke:none;stroke-width:3.55739999"
           d="M 434.40062,330.54062 H 444.9305 V 225.38387 h -10.52988 z" />
        <path
           d="m 329.06821,330.54062 h 10.52991 v -92.49241 l 62.61026,92.49241 h 10.52988 V 225.38387 h -10.52988 v 87.22745 l -58.91055,-87.22745 h -14.22962 z"
           style="font-style:normal;font-variant:normal;font-weight:normal;font-stretch:normal;font-size:medium;line-height:1.25;font-family:'URW Gothic';-inkscape-font-specification:'URW Gothic';letter-spacing:0px;word-spacing:0px;fill:#7e9d9d;fill-opacity:1;stroke:none;stroke-width:3.55739999"
           id="path5553-3"
           inkscape:connector-curvature="0" />
        <path
           d="m 618.20256,302.93518 c -4.41116,5.54956 -6.97251,8.39548 -10.52992,11.0991 -7.11477,5.54953 -16.50629,8.68006 -26.04015,8.68006 -24.47489,0 -44.39633,-20.06374 -44.39633,-44.82325 0,-25.32868 19.06764,-44.68094 44.25403,-44.68094 9.10697,0 17.64473,2.41903 24.61724,7.1148 4.69576,2.98822 7.54167,6.11873 11.52597,12.37975 h 11.81057 c -8.1109,-18.07159 -26.60938,-29.17068 -48.38067,-29.17068 -31.30511,0 -54.49936,23.33655 -54.49936,54.78396 0,30.87824 23.76344,54.07248 55.21085,54.07248 21.34439,0 37.56616,-9.96073 48.09604,-29.45528 z"
           style="font-style:normal;font-variant:normal;font-weight:normal;font-stretch:normal;font-size:medium;line-height:1.25;font-family:'URW Gothic';-inkscape-font-specification:'URW Gothic';letter-spacing:0px;word-spacing:0px;fill:#7e9d9d;fill-opacity:1;stroke:none;stroke-width:3.55739999"
           id="path5561-5"
           inkscape:connector-curvature="0" />
        <path
           inkscape:connector-curvature="0"
           id="path5559-9"
           style="font-style:normal;font-variant:normal;font-weight:normal;font-stretch:normal;font-size:medium;line-height:1.25;font-family:'URW Gothic';-inkscape-font-specification:'URW Gothic';letter-spacing:0px;word-spacing:0px;fill:#ecf0f1;fill-opacity:1;stroke:none;stroke-width:3.55739999"
           d="m 496.87851,330.54062 h 10.52992 V 225.38387 h -10.52992 z" />
      </g>
      <g
         transform="translate(26.309901,-29.080232)"
         style="fill:#ffffff"
         id="g867">
        <g
           id="g1988"
           style="fill:#ffffff;fill-opacity:1">
          <path
             d="m 349.81506,914.22876 c -30.16674,0 -55.63774,24.61721 -55.63774,53.78788 0,30.59365 24.75951,55.06856 55.78004,55.06856 30.30905,0 55.35314,-24.6172 55.35314,-54.35708 0,-30.02445 -25.04409,-54.49936 -55.49544,-54.49936 z m 0,9.67613 c 24.61721,0 44.82324,20.34833 44.82324,44.96553 0,24.33261 -20.34833,44.53868 -44.68094,44.53868 -25.04409,0 -45.10783,-20.20607 -45.10783,-45.10787 0,-24.04801 20.63292,-44.39634 44.96553,-44.39634 z"
             style="font-style:normal;font-variant:normal;font-weight:normal;font-stretch:normal;font-size:medium;line-height:1.25;font-family:'URW Gothic';-inkscape-font-specification:'URW Gothic';letter-spacing:0px;word-spacing:0px;fill:#ffffff;fill-opacity:1;stroke:none;stroke-width:3.55739999"
             id="path5545-7"
             inkscape:connector-curvature="0" />
          <path
             d="m 462.67583,981.96166 c 20.20602,-2.13445 31.02053,-13.23354 31.02053,-32.1589 0,-13.09123 -5.54955,-23.05195 -15.79487,-28.60149 -6.5456,-3.5574 -15.51026,-5.12266 -29.45526,-5.12266 h -26.04017 v 105.15679 h 10.5299 v -95.62296 h 14.79878 c 11.09909,0 18.49848,1.13837 24.19032,3.84199 7.1148,3.41511 11.09909,10.52991 11.09909,20.06374 0,11.95286 -5.40725,19.49455 -15.93715,22.19817 -4.98036,1.28067 -11.81057,1.84984 -23.47883,1.84984 l 35.43169,47.66922 h 13.09123 z"
             style="font-style:normal;font-variant:normal;font-weight:normal;font-stretch:normal;font-size:medium;line-height:1.25;font-family:'URW Gothic';-inkscape-font-specification:'URW Gothic';letter-spacing:0px;word-spacing:0px;fill:#ffffff;fill-opacity:1;stroke:none;stroke-width:3.55739999"
             id="path5547-9"
             inkscape:connector-curvature="0" />
          <path
             d="m 544.84064,972.71242 v 9.53382 h 58.76824 c -1.56526,6.83021 -5.12266,12.66435 -11.09909,18.64076 -8.11087,8.1109 -19.20996,12.5221 -31.44741,12.5221 -25.75558,0 -46.10391,-19.63687 -46.10391,-44.68098 0,-25.32868 19.92144,-44.82323 45.96161,-44.82323 16.22174,0 29.88216,7.39939 37.13925,20.20603 h 11.81057 c -6.9725,-17.92929 -26.89394,-29.88216 -49.8036,-29.88216 -31.30512,0 -55.78003,23.76343 -55.78003,54.21477 0,30.87823 24.9018,54.64167 57.203,54.64167 16.64863,0 30.87822,-6.1187 40.98124,-17.787 8.53776,-9.81842 13.09123,-20.77521 13.80271,-32.58578 z"
             style="font-style:normal;font-variant:normal;font-weight:normal;font-stretch:normal;font-size:medium;line-height:1.25;font-family:'URW Gothic';-inkscape-font-specification:'URW Gothic';letter-spacing:0px;word-spacing:0px;fill:#ffffff;fill-opacity:1;stroke:none;stroke-width:3.55739999"
             id="path5549-2"
             inkscape:connector-curvature="0" />
        </g>
        <rect
           style="opacity:1;fill:#ffffff;fill-opacity:1;stroke:none;stroke-width:10.33632946;stroke-linejoin:round;stroke-miterlimit:4;stroke-dasharray:none;stroke-opacity:1;paint-order:markers fill stroke"
           id="rect2000"
           width="10.603846"
           height="161.79431"
           x="422.40607"
           y="996.73181" />
      </g>
    </g>
  </g>
</svg>
